<svg xmlns="http://www.w3.org/2000/svg" viewBox="0 0 15.875 15.875" id="notes"><path fill="#2ab7ca" d="m 19.699219,1.015625 v 57.933594 h 36.503525 c 1.261879,0 2.746475,-0.852656 2.746475,-2.476587 V 3.4837124 c 0,-1.4609874 -0.702288,-2.4680874 -2.25003,-2.4680874 z" transform="scale(.26458)" class="color5c92f2 svgShape"></path><path fill="#ccf5fb" d="m 5.9472656,3.3530692 v 3.4457589 h 4.2949224 c 1.322114,0 2.386718,1.064603 2.386718,2.3867188 v 2.2988281 c 0,1.322116 -1.064604,2.386719 -2.386718,2.386719 H 5.9472656 v 12.632812 h 4.2949224 c 1.322114,0 2.386718,1.064603 2.386718,2.386719 v 2.298828 c 0,1.322116 -1.064604,2.386719 -2.386718,2.386719 H 5.9472656 v 12.632812 h 4.2949224 c 1.322114,0 2.386718,1.064603 2.386718,2.386719 v 2.298828 c 0,1.322116 -1.064604,2.384766 -2.386718,2.384766 H 5.9472656 v 2.670762 c 0,2.139139 1.2769829,2.99916 3.0671216,2.99916 H 19.699219 V 1.015625 H 8.3611707 c -1.7218487,0 -2.4139051,0.7114281 -2.4139051,2.3374442 z" transform="scale(.26458)" class="colorccddfb svgShape"></path><path fill="#2ab7ca" d="M 3.4375 6.7988281 C 2.1153842 6.7988281 1.0507812 7.8634311 1.0507812 9.1855469 L 1.0507812 11.484375 C 1.0507813 12.806491 2.1153842 13.871094 3.4375 13.871094 L 10.242188 13.871094 C 11.564303 13.871094 12.628906 12.806491 12.628906 11.484375 L 12.628906 9.1855469 C 12.628906 7.8634311 11.564303 6.7988281 10.242188 6.7988281 L 3.4375 6.7988281 z M 3.4375 26.503906 C 2.1153842 26.503906 1.0507812 27.568509 1.0507812 28.890625 L 1.0507812 31.189453 C 1.0507813 32.511569 2.1153842 33.576172 3.4375 33.576172 L 10.242188 33.576172 C 11.564303 33.576172 12.628906 32.511569 12.628906 31.189453 L 12.628906 28.890625 C 12.628906 27.568509 11.564303 26.503906 10.242188 26.503906 L 3.4375 26.503906 z M 3.4375 46.208984 C 2.1153842 46.208984 1.0507812 47.273587 1.0507812 48.595703 L 1.0507812 50.894531 C 1.0507813 52.216647 2.1153842 53.279297 3.4375 53.279297 L 10.242188 53.279297 C 11.564303 53.279297 12.628906 52.216647 12.628906 50.894531 L 12.628906 48.595703 C 12.628906 47.273587 11.564303 46.208984 10.242188 46.208984 L 3.4375 46.208984 z " transform="scale(.26458)" class="color5c92f2 svgShape"></path><rect width="5.602" height="3.204" x="7.541" y="2.311" fill="#ccf5fb" rx=".631" ry=".631" class="colorccddfb svgShape"></rect></svg>